<svg width="18" height="18" viewBox="0 0 18 18" fill="none" xmlns="http://www.w3.org/2000/svg">
<path d="M7.5 9C8.32843 9 9 8.32843 9 7.5C9 6.67157 8.32843 6 7.5 6C6.67157 6 6 6.67157 6 7.5C6 8.32843 6.67157 9 7.5 9Z" fill="white"/>
<path d="M11.5 9C12.3284 9 13 8.32843 13 7.5C13 6.67157 12.3284 6 11.5 6C10.6716 6 10 6.67157 10 7.5C10 8.32843 10.6716 9 11.5 9Z" fill="white"/>
<path d="M9.5 1C4.8131 1 1 4.05065 1 7.8C1 10.2718 2.61245 12.4878 5.25 13.6939V18L9.789 14.5966C14.3425 14.4742 18 11.472 18 7.8C18 4.05065 14.1869 1 9.5 1ZM9.5 12.9H9.21695L6.95 14.6V12.5456L6.40515 12.3356C4.12035 11.4559 2.7 9.7176 2.7 7.8C2.7 4.98735 5.75065 2.7 9.5 2.7C13.2494 2.7 16.3 4.98735 16.3 7.8C16.3 10.6127 13.2494 12.9 9.5 12.9Z" fill="white"/>
</svg>
