<svg width="18" height="18" viewBox="0 0 18 18" fill="none" xmlns="http://www.w3.org/2000/svg">
<path d="M15.4 5H12.2V2.6C12.2 1.7176 11.4824 1 10.6 1H7.4C6.5176 1 5.8 1.7176 5.8 2.6V6.6H2.6C1.7176 6.6 1 7.3176 1 8.2V15.4C1 15.6122 1.08429 15.8157 1.23431 15.9657C1.38434 16.1157 1.58783 16.2 1.8 16.2H16.2C16.4122 16.2 16.6157 16.1157 16.7657 15.9657C16.9157 15.8157 17 15.6122 17 15.4V6.6C17 5.7176 16.2824 5 15.4 5ZM2.6 8.2H5.8V14.6H2.6V8.2ZM7.4 7.4V2.6H10.6V14.6H7.4V7.4ZM15.4 14.6H12.2V6.6H15.4V14.6Z" fill="white"/>
</svg>
