<svg width="18" height="18" viewBox="0 0 18 18" fill="none" xmlns="http://www.w3.org/2000/svg">
<path d="M15.4 5.2V3.6C15.4 2.7176 14.6824 2 13.8 2H3.4C2.0768 2 1 3.0768 1 4.4V14C1 15.7608 2.4352 16.4 3.4 16.4H15.4C16.2824 16.4 17 15.6824 17 14.8V6.8C17 5.9176 16.2824 5.2 15.4 5.2ZM13.8 12.4H12.2V9.2H13.8V12.4ZM3.4 5.2C3.19402 5.19079 2.99952 5.10247 2.85702 4.95345C2.71452 4.80443 2.63499 4.60619 2.63499 4.4C2.63499 4.19381 2.71452 3.99557 2.85702 3.84655C2.99952 3.69753 3.19402 3.60921 3.4 3.6H13.8V5.2H3.4Z" fill="white"/>
</svg>
