<svg width="16" height="15" viewBox="0 0 16 15" fill="none" xmlns="http://www.w3.org/2000/svg">
<path d="M14.4 3.2V1.6C14.4 0.7176 13.6824 0 12.8 0H2.4C1.0768 0 0 1.0768 0 2.4V12C0 13.7608 1.4352 14.4 2.4 14.4H14.4C15.2824 14.4 16 13.6824 16 12.8V4.8C16 3.9176 15.2824 3.2 14.4 3.2ZM12.8 10.4H11.2V7.2H12.8V10.4ZM2.4 3.2C2.19402 3.19079 1.99952 3.10247 1.85702 2.95345C1.71452 2.80443 1.63499 2.60619 1.63499 2.4C1.63499 2.19381 1.71452 1.99557 1.85702 1.84655C1.99952 1.69753 2.19402 1.60921 2.4 1.6H12.8V3.2H2.4Z" fill="white"/>
</svg>
