<svg width="18" height="18" viewBox="0 0 18 18" fill="none" xmlns="http://www.w3.org/2000/svg">
<path d="M4.625 1C4.19402 1 3.7807 1.16857 3.47595 1.46863C3.1712 1.76869 3 2.17565 3 2.6V15.4C3 15.8243 3.1712 16.2313 3.47595 16.5314C3.7807 16.8314 4.19402 17 4.625 17H14.375C14.806 17 15.2193 16.8314 15.524 16.5314C15.8288 16.2313 16 15.8243 16 15.4V5.8L11.125 1H8.6875V2.6H7.0625V4.2H8.6875V5.8H7.0625V7.4H8.6875V13.8H5.4375V9H7.0625V7.4H5.4375V5.8H7.0625V4.2H5.4375V2.6H7.0625V1H4.625ZM10.3125 2.6L14.375 6.6H10.3125V2.6Z" fill="white"/>
</svg>
