<svg width="18" height="18" viewBox="0 0 18 18" fill="none" xmlns="http://www.w3.org/2000/svg">
<path d="M15.4 9C15.2077 9.00137 15.0171 9.03742 14.8376 9.1064L12.9192 7.536C12.9664 7.3648 13 7.1872 13 7C13 5.8912 12.1088 5 11 5C9.8912 5 9 5.8912 9 7C9 7.3168 9.08 7.612 9.2096 7.8776L6.8824 10.628C6.78925 10.6106 6.69476 10.6012 6.6 10.6C6.4568 10.6 6.3216 10.624 6.1904 10.6592L4.14 8.6088C4.176 8.4784 4.2 8.3432 4.2 8.2C4.2 7.3136 3.4864 6.6 2.6 6.6C1.7136 6.6 1 7.3136 1 8.2C1 9.0864 1.7136 9.8 2.6 9.8C2.7432 9.8 2.8784 9.776 3.0096 9.7408L5.06 11.7912C5.02154 11.9241 5.00136 12.0616 5 12.2C5 13.0864 5.7136 13.8 6.6 13.8C7.4864 13.8 8.2 13.0864 8.2 12.2C8.2 12.0104 8.1616 11.832 8.1016 11.6632L10.432 8.9096C10.6136 8.9624 10.8016 9 11 9C11.3157 8.99825 11.6265 8.92119 11.9064 8.7752L13.8256 10.3456C13.8105 10.4296 13.802 10.5147 13.8 10.6C13.8 11.4864 14.5136 12.2 15.4 12.2C16.2864 12.2 17 11.4864 17 10.6C17 9.7136 16.2864 9 15.4 9Z" fill="white"/>
</svg>
