<svg width="24" height="24" viewBox="0 0 24 24" fill="none" xmlns="http://www.w3.org/2000/svg">
<path d="M18.4 11C18.2077 11.0014 18.0171 11.0374 17.8376 11.1064L15.9192 9.536C15.9664 9.3648 16 9.1872 16 9C16 7.8912 15.1088 7 14 7C12.8912 7 12 7.8912 12 9C12 9.3168 12.08 9.612 12.2096 9.8776L9.8824 12.628C9.78925 12.6106 9.69476 12.6012 9.6 12.6C9.4568 12.6 9.3216 12.624 9.1904 12.6592L7.14 10.6088C7.176 10.4784 7.2 10.3432 7.2 10.2C7.2 9.3136 6.4864 8.6 5.6 8.6C4.7136 8.6 4 9.3136 4 10.2C4 11.0864 4.7136 11.8 5.6 11.8C5.7432 11.8 5.8784 11.776 6.0096 11.7408L8.06 13.7912C8.02154 13.9241 8.00136 14.0616 8 14.2C8 15.0864 8.7136 15.8 9.6 15.8C10.4864 15.8 11.2 15.0864 11.2 14.2C11.2 14.0104 11.1616 13.832 11.1016 13.6632L13.432 10.9096C13.6136 10.9624 13.8016 11 14 11C14.3157 10.9983 14.6265 10.9212 14.9064 10.7752L16.8256 12.3456C16.8105 12.4296 16.802 12.5147 16.8 12.6C16.8 13.4864 17.5136 14.2 18.4 14.2C19.2864 14.2 20 13.4864 20 12.6C20 11.7136 19.2864 11 18.4 11Z" fill="white"/>
</svg>
