<svg width="18" height="18" viewBox="0 0 18 18" fill="none" xmlns="http://www.w3.org/2000/svg">
<path d="M9.00038 4C8.20494 4.0011 7.44237 4.34685 6.87991 4.96142C6.31744 5.57599 6.00101 6.4092 6 7.27833H7.52536C7.52536 6.38917 8.18737 5.66667 9.00038 5.66667C9.8134 5.66667 10.4754 6.38917 10.4754 7.27833C10.4754 7.77667 10.1086 8.13833 9.54799 8.63333C9.36486 8.79008 9.18897 8.95668 9.02097 9.1325C8.25982 9.96333 8.2377 10.8458 8.2377 10.9442V11.5H9.76306L9.7623 10.9725C9.76306 10.9592 9.78747 10.6508 10.0986 10.3117C10.213 10.1867 10.3572 10.0617 10.5067 9.93C11.1008 9.40417 12 8.61 12 7.27833C11.9994 6.40921 11.6832 5.57587 11.1208 4.96123C10.5584 4.34659 9.79581 4.00088 9.00038 4ZM8.2377 12.3333H9.76306V14H8.2377V12.3333Z" fill="white"/>
<path d="M9 1C4.5888 1 1 4.5888 1 9C1 13.4112 4.5888 17 9 17C13.4112 17 17 13.4112 17 9C17 4.5888 13.4112 1 9 1ZM9 15.4C5.4712 15.4 2.6 12.5288 2.6 9C2.6 5.4712 5.4712 2.6 9 2.6C12.5288 2.6 15.4 5.4712 15.4 9C15.4 12.5288 12.5288 15.4 9 15.4Z" fill="white"/>
</svg>
