<svg width="18" height="18" viewBox="0 0 18 18" fill="none" xmlns="http://www.w3.org/2000/svg">
<path d="M15.75 3.66666H2.25C2.05109 3.66666 1.86032 3.73689 1.71967 3.86192C1.57902 3.98694 1.5 4.15651 1.5 4.33332V13.6667C1.5 13.8435 1.57902 14.013 1.71967 14.1381C1.86032 14.2631 2.05109 14.3333 2.25 14.3333H15.75C15.9489 14.3333 16.1397 14.2631 16.2803 14.1381C16.421 14.013 16.5 13.8435 16.5 13.6667V4.33332C16.5 4.15651 16.421 3.98694 16.2803 3.86192C16.1397 3.73689 15.9489 3.66666 15.75 3.66666ZM15 11C14.4033 11 13.831 11.2107 13.409 11.5858C12.9871 11.9608 12.75 12.4696 12.75 13H5.25C5.25 12.4696 5.01295 11.9608 4.59099 11.5858C4.16903 11.2107 3.59674 11 3 11V6.99999C3.59674 6.99999 4.16903 6.78928 4.59099 6.4142C5.01295 6.03913 5.25 5.53042 5.25 4.99999H12.75C12.75 5.53042 12.9871 6.03913 13.409 6.4142C13.831 6.78928 14.4033 6.99999 15 6.99999V11Z" fill="white"/>
<path d="M9 6.33334C7.3455 6.33334 6 7.52934 6 9.00001C6 10.4707 7.3455 11.6667 9 11.6667C10.6545 11.6667 12 10.4707 12 9.00001C12 7.52934 10.6545 6.33334 9 6.33334ZM9 10.3333C8.17275 10.3333 7.5 9.73534 7.5 9.00001C7.5 8.26468 8.17275 7.66668 9 7.66668C9.82725 7.66668 10.5 8.26468 10.5 9.00001C10.5 9.73534 9.82725 10.3333 9 10.3333Z" fill="white"/>
</svg>
