<svg width="18" height="18" viewBox="0 0 18 18" fill="none" xmlns="http://www.w3.org/2000/svg">
<path d="M8.7998 5C9.90437 5 10.7998 4.10457 10.7998 3C10.7998 1.89543 9.90437 1 8.7998 1C7.69524 1 6.7998 1.89543 6.7998 3C6.7998 4.10457 7.69524 5 8.7998 5Z" fill="white"/>
<path d="M10.8 6H6.8C6.64476 6 6.49164 6.03614 6.35279 6.10557C6.21393 6.175 6.09315 6.2758 6 6.4L3 10.4L4.6 11.6L5.8 10V17H7.8V13H9.8V17H11.8V10L13 11.6L14.6 10.4L11.6 6.4C11.5069 6.2758 11.3861 6.175 11.2472 6.10557C11.1084 6.03614 10.9552 6 10.8 6Z" fill="white"/>
</svg>
