<svg width="50" height="50" viewBox="0 0 50 50" fill="none" xmlns="http://www.w3.org/2000/svg">
<path d="M6.25 6.25V41.6667C6.25 42.2192 6.46949 42.7491 6.86019 43.1398C7.25089 43.5305 7.7808 43.75 8.33333 43.75H43.75V39.5833H10.4167V6.25H6.25Z" fill="#020887"/>
<path d="M31.86 30.6396C32.0533 30.8332 32.2829 30.9869 32.5357 31.0917C32.7884 31.1965 33.0593 31.2504 33.3329 31.2504C33.6066 31.2504 33.8775 31.1965 34.1302 31.0917C34.383 30.9869 34.6126 30.8332 34.8059 30.6396L45.2225 20.2229L42.2767 17.2771L33.3329 26.2208L28.5559 21.4438C28.3626 21.2501 28.133 21.0965 27.8802 20.9917C27.6275 20.8869 27.3566 20.8329 27.0829 20.8329C26.8093 20.8329 26.5384 20.8869 26.2857 20.9917C26.0329 21.0965 25.8033 21.2501 25.61 21.4438L15.1934 31.8604L18.1392 34.8063L27.0829 25.8625L31.86 30.6396Z" fill="#020887"/>
</svg>
