<svg width="20" height="20" viewBox="0 0 20 20" fill="none" xmlns="http://www.w3.org/2000/svg">
<path d="M8.33335 15.0003C9.8125 15 11.249 14.5049 12.4142 13.5937L16.0775 17.257L17.2559 16.0787L13.5925 12.4153C14.5042 11.25 14.9997 9.81319 15 8.33366C15 4.65783 12.0092 1.66699 8.33335 1.66699C4.65752 1.66699 1.66669 4.65783 1.66669 8.33366C1.66669 12.0095 4.65752 15.0003 8.33335 15.0003ZM8.33335 3.33366C11.0909 3.33366 13.3334 5.57616 13.3334 8.33366C13.3334 11.0912 11.0909 13.3337 8.33335 13.3337C5.57585 13.3337 3.33335 11.0912 3.33335 8.33366C3.33335 5.57616 5.57585 3.33366 8.33335 3.33366Z" fill="white"/>
</svg>
