<svg width="69" height="73" viewBox="0 0 69 73" fill="none" xmlns="http://www.w3.org/2000/svg">
<path d="M58.9002 52.1344L47.2133 40.8924C46.0662 39.7883 44.2952 39.8461 43.2142 41.0232L36.3343 48.5087C34.6783 48.1741 31.3491 47.0761 27.9221 43.4595C24.4951 39.8308 23.4572 36.2995 23.1496 34.5596L30.2192 27.2779C31.3347 26.1342 31.3865 24.2636 30.3428 23.0469L19.7197 10.6856C18.6761 9.46588 16.9022 9.3503 15.7206 10.421L9.48183 16.0815C8.98445 16.6108 8.68833 17.3103 8.64808 18.0555C8.60495 18.816 7.7827 36.8287 20.9847 50.8021C32.502 62.984 46.9287 63.8752 50.902 63.8752C51.4827 63.8752 51.8392 63.857 51.9341 63.8509C52.6385 63.8083 53.2997 63.495 53.7971 62.9658L59.1446 56.3623C60.1623 55.1122 60.0502 53.2385 58.9002 52.1344Z" fill="#030888"/>
</svg>
